<?xml version="1.0" encoding="UTF-8" standalone="no"?>
<svg
   version="1.1"
   id="Layer_1"
   x="0px"
   y="0px"
   width="300"
   viewBox="0 0 300 300.00001"
   enable-background="new 0 0 1024 1024"
   xml:space="preserve"
   sodipodi:docname="logo.svg"
   height="300"
   inkscape:version="1.2.2 (b0a8486541, 2022-12-01)"
   xmlns:inkscape="http://www.inkscape.org/namespaces/inkscape"
   xmlns:sodipodi="http://sodipodi.sourceforge.net/DTD/sodipodi-0.dtd"
   xmlns="http://www.w3.org/2000/svg"
   xmlns:svg="http://www.w3.org/2000/svg"><defs
   id="defs71" /><sodipodi:namedview
   id="namedview69"
   pagecolor="#ffffff"
   bordercolor="#000000"
   borderopacity="0.25"
   inkscape:showpageshadow="2"
   inkscape:pageopacity="0.0"
   inkscape:pagecheckerboard="0"
   inkscape:deskcolor="#d1d1d1"
   showgrid="false"
   inkscape:zoom="0.91568581"
   inkscape:cx="57.880115"
   inkscape:cy="55.69596"
   inkscape:window-width="1920"
   inkscape:window-height="1118"
   inkscape:window-x="0"
   inkscape:window-y="0"
   inkscape:window-maximized="1"
   inkscape:current-layer="Layer_1" />














<rect
   style="fill:#ffac6c;fill-opacity:1;stroke:none;stroke-width:3.30889;stroke-linejoin:bevel;stroke-dasharray:none;stroke-opacity:1"
   id="rect1329"
   width="316.76761"
   height="321.00543"
   x="-6.7234144"
   y="-6.9069219" /><path
   fill="#000000"
   opacity="1"
   stroke="none"
   d="m 194.96536,119.43547 c -0.0406,23.42298 0.66238,46.24568 4.27933,69.09676 4.25584,-4.2424 6.17418,-9.55621 8.38772,-14.60708 11.15045,-25.44392 22.82278,-50.64807 35.89818,-75.151704 3.32977,-6.240261 7.00694,-12.516982 11.84373,-17.90942 3.31614,-3.697221 9.3516,-5.324471 12.84866,-2.926626 4.3562,2.98684 3.78563,7.540916 2.2095,11.455096 -2.53577,6.297167 -5.85008,12.282934 -8.87418,18.381094 -17.1635,34.61016 -31.92628,70.284 -46.94859,105.84384 -1.21471,2.87532 -2.52164,5.73747 -4.07808,8.43727 -2.99696,5.19849 -7.22823,9.33276 -13.5169,9.04329 -6.16122,-0.28367 -9.70377,-5.15294 -12.01526,-10.20901 -4.07398,-8.91143 -5.97733,-18.53069 -7.32188,-28.18942 -2.43422,-17.48624 -3.15121,-35.07804 -3.62125,-52.73209 -0.29495,-11.0774 -0.0923,-22.00142 1.42851,-32.93091 0.82993,-5.96389 4.20601,-10.104834 9.69681,-12.408976 4.36439,-1.831385 7.52499,-0.0449 8.6907,4.479553 1.6824,6.530333 0.92511,13.174363 1.093,20.328333 z"
   id="path30"
   inkscape:label="V"
   style="stroke-width:1.10602;fill:#000000" /><path
   fill="#000000"
   opacity="1"
   stroke="none"
   d="m 58.167055,103.70901 c -2.085964,-1.44807 -3.648354,-0.29058 -5.28349,0.27443 -3.184723,1.10045 -6.381866,2.20748 -9.830297,1.44378 -2.598226,-0.5754 -5.611611,-0.96932 -6.3816,-3.98667 -0.848258,-3.324184 0.403463,-6.318477 3.115809,-8.510963 4.553182,-3.680562 9.357984,-6.999997 14.432516,-9.935123 3.218447,-1.861417 6.281197,-4.005442 9.563291,-5.739767 3.278837,-1.732686 4.881367,-4.462953 5.710992,-7.878332 0.542654,-2.233785 1.140464,-4.454705 1.749255,-6.671677 1.32967,-4.842207 4.697109,-7.588063 9.502166,-8.026228 4.56707,-0.416456 7.755571,2.526981 9.493397,6.299639 1.364617,2.962475 3.02359,2.252238 5.116492,1.727174 9.963384,-2.499111 19.913914,-4.882868 30.348574,-4.39307 7.16012,0.336113 14.03191,1.500297 20.55037,4.570454 7.39958,3.484996 12.5099,14.005982 11.49017,23.912665 -1.37273,13.336918 -9.09758,23.296668 -18.00181,32.312878 -7.45583,7.54955 -15.43724,14.6336 -24.63751,20.14571 -4.69439,2.81249 -4.82111,6.19903 -2.602,11.20284 9.12473,20.57574 18.19946,41.14681 31.01951,59.78223 3.11036,4.52129 6.47215,8.88377 9.92786,13.14954 3.78877,4.67698 1.58239,9.19547 -0.41926,13.41993 -1.98451,4.18803 -6.06796,3.1937 -9.85674,2.91136 -12.84376,-0.95725 -18.63236,-10.3968 -24.25346,-19.95288 -10.54541,-17.92764 -17.95064,-37.30966 -25.57755,-56.55912 -1.923712,-4.85539 -4.128787,-6.05374 -8.61663,-3.4105 -2.43241,1.43255 -4.997052,3.0997 -7.688998,3.55475 -13.170781,2.22593 -14.336646,12.8635 -16.210291,22.82578 -2.119335,11.26857 -3.628081,22.65093 -5.653963,33.93859 -1.315379,7.32943 -5.187674,10.95655 -11.408725,11.44076 -6.219625,0.48407 -10.063932,-3.14797 -10.399332,-9.67319 -0.617752,-12.02095 2.812366,-23.46516 4.945089,-35.09056 0.668926,-3.64594 1.63156,-7.24123 2.54471,-10.83807 0.625083,-2.46255 0.797593,-4.49907 -1.01616,-6.88595 -2.65285,-3.49104 -1.042137,-9.55763 2.95344,-11.38905 2.646677,-1.21308 3.836645,-2.98923 4.345853,-5.50619 2.978449,-14.72292 7.472656,-29.04859 11.354953,-43.53429 0.419713,-1.5663 0.705959,-3.11231 -0.326631,-4.93088 m 29.716727,28.81106 c 6.353156,-4.48199 12.977818,-8.62994 18.997198,-13.52256 9.57349,-7.78135 19.57038,-15.30727 25.81981,-26.322916 4.24422,-7.481089 0.51552,-13.759105 -8.23958,-14.342623 -1.93034,-0.128666 -3.91544,-0.118791 -5.82083,0.17764 -9.6394,1.499264 -18.914965,4.317993 -27.990533,7.867232 -3.598541,1.40729 -5.787505,3.882436 -6.696366,7.598264 -3.350551,13.698053 -6.719873,27.391613 -10.079906,41.087403 -0.348329,1.41963 -0.586763,2.87835 0.902818,3.79805 1.390337,0.85852 2.73962,0.29358 3.974985,-0.48582 2.841013,-1.79245 5.6617,-3.61705 9.132404,-5.85467 z"
   id="path14"
   inkscape:label="R"
   style="stroke-width:1.06415;fill:#000000" />


















</svg>
